<svg width="24" height="24" viewBox="0 0 24 24" fill="none" xmlns="http://www.w3.org/2000/svg">
<path opacity="0.52" fill-rule="evenodd" clip-rule="evenodd" d="M20.6246 5.32343C20.1927 4.95771 19.7014 4.544 19.116 4.024C18.8507 3.81829 18.5604 3.58286 18.2522 3.33371C16.5152 1.92686 14.1357 0 11.9667 0C9.82275 0 7.59665 1.81943 5.80844 3.28114C5.47768 3.55086 5.16834 3.80457 4.85305 4.05029C4.29862 4.544 3.80725 4.95886 3.37418 5.32571C0.534205 7.72686 0 8.35657 0 13.9577C0 24 3.02319 24 12 24C20.9756 24 24 24 24 13.9577C24 8.35543 23.4658 7.72571 20.6246 5.32343Z" fill="white"/>
<path d="M8.54101 17.5826H15.4595C15.9521 17.5826 16.3519 17.1986 16.3519 16.7255C16.3519 16.2523 15.9521 15.8683 15.4595 15.8683H8.54101C8.04844 15.8683 7.64868 16.2523 7.64868 16.7255C7.64868 17.1986 8.04844 17.5826 8.54101 17.5826Z" fill="white"/>
</svg>
